# xmcd
#
# Track frame offsets:
#	150
#	12218
#	23566
#	35439
#	49112
#	61390
#	72918
#	86216
#	104216
#	112406
#	120244
#
# Disc length: 1780 seconds
#
# Revision: 1
# Processed by: cddbd v1.5.2PL0 Copyright (c) Steve Scherf et al.
# Submitted via: audiograbber 1.83.01
#
DISCID=9606f20b
DTITLE=Johnny Cash - Greatest Hits Vol 1
DYEAR=1967
DGENRE=Country
TTITLE0=Jackson
TTITLE1=I Walk The Line
TTITLE2=Understand Your Man
TTITLE3=Orange Blossom Special
TTITLE4=The One On The Right Is On The Left
TTITLE5=Ring Of Fire
TTITLE6=It Ain't Me Babe
TTITLE7=Teh Ballad Of Ira Hayes
TTITLE8=The Rebel-Johnny Yuma
TTITLE9=Five Feet High And Rising
TTITLE10=Don't Take Your Guns To Town
EXTD=
EXTT0=
EXTT1=
EXTT2=
EXTT3=
EXTT4=
EXTT5=
EXTT6=
EXTT7=
EXTT8=
EXTT9=
EXTT10=
PLAYORDER=
